HIERARCHY
ROOT Root
{
  OFFSET 0.0 0.0 0.0
  CHANNELS 6 Xposition Yposition Zposition Zrotation Yrotation Xrotation
  JOINT Hips
  {
    OFFSET 0.0 100.0 0.0
    CHANNELS 6 Xposition Yposition Zposition Zrotation Yrotation Xrotation
    JOINT Spine1
    {
      OFFSET 5.003913 -0.037094 -0.013727
      CHANNELS 3 Zrotation Yrotation Xrotation
      JOINT Spine2
      {
        OFFSET 7.125363 -1e-06 0.0
        CHANNELS 3 Zrotation Yrotation Xrotation
        JOINT Chest
        {
          OFFSET 7.594027 1e-06 0.0
          CHANNELS 3 Zrotation Yrotation Xrotation
          JOINT Neck1
          {
            OFFSET 26.313086 -0.460272 -0.181672
            CHANNELS 3 Zrotation Yrotation Xrotation
            JOINT Neck2
            {
              OFFSET 8.045911 0.0 0.0
              CHANNELS 3 Zrotation Yrotation Xrotation
              JOINT Head
              {
                OFFSET 6.432774 0.0 0.0
                CHANNELS 3 Zrotation Yrotation Xrotation
                JOINT HeadEnd
                {
                  OFFSET 16.169773 0.06451 0.00362
                  CHANNELS 3 Zrotation Yrotation Xrotation
                }
                JOINT Jaw
                {
                  OFFSET 0.108741 3.12938 0.002639
                  CHANNELS 3 Zrotation Yrotation Xrotation
                }
                JOINT LeftEye
                {
                  OFFSET 4.45173 8.166359 3.206392
                  CHANNELS 3 Zrotation Yrotation Xrotation
                }
                JOINT RightEye
                {
                  OFFSET 4.436895 8.135758 -3.222429
                  CHANNELS 3 Zrotation Yrotation Xrotation
                }
              }
            }
          }
          JOINT LeftShoulder
          {
            OFFSET 23.218927 5.195579 1.621656
            CHANNELS 3 Zrotation Yrotation Xrotation
            JOINT LeftArm
            {
              OFFSET 15.902118 2e-06 -2e-06
              CHANNELS 3 Zrotation Yrotation Xrotation
              JOINT LeftForeArm
              {
                OFFSET 28.739307 0.0 -1e-06
                CHANNELS 3 Zrotation Yrotation Xrotation
                JOINT LeftHand
                {
                  OFFSET 27.093981 -4e-06 0.0
                  CHANNELS 3 Zrotation Yrotation Xrotation
                  JOINT LeftHandThumb1
                  {
                    OFFSET 2.276781 3.380274 0.83384
                    CHANNELS 3 Zrotation Yrotation Xrotation
                    JOINT LeftHandThumb2
                    {
                      OFFSET 4.705309 -1e-06 -1e-06
                      CHANNELS 3 Zrotation Yrotation Xrotation
                      JOINT LeftHandThumb3
                      {
                        OFFSET 2.798515 0.0 3e-06
                        CHANNELS 3 Zrotation Yrotation Xrotation
                        JOINT LeftHandThumbEnd
                        {
                          OFFSET 3.180793 4e-06 -4e-06
                          CHANNELS 3 Zrotation Yrotation Xrotation
                        }
                      }
                    }
                  }
                  JOINT LeftHandIndex1
                  {
                    OFFSET 3.247786 2.352677 0.137192
                    CHANNELS 3 Zrotation Yrotation Xrotation
                    JOINT LeftHandIndex2
                    {
                      OFFSET 6.367095 1e-06 0.0
                      CHANNELS 3 Zrotation Yrotation Xrotation
                      JOINT LeftHandIndex3
                      {
                        OFFSET 3.662364 0.0 0.0
                        CHANNELS 3 Zrotation Yrotation Xrotation
                        JOINT LeftHandIndex4
                        {
                          OFFSET 2.329242 4e-06 -4e-06
                          CHANNELS 3 Zrotation Yrotation Xrotation
                          JOINT LeftHandIndexEnd
                          {
                            OFFSET 2.767823 1e-06 0.0
                            CHANNELS 3 Zrotation Yrotation Xrotation
                          }
                        }
                      }
                    }
                  }
                  JOINT LeftHandMiddle1
                  {
                    OFFSET 3.163612 0.945023 -0.406112
                    CHANNELS 3 Zrotation Yrotation Xrotation
                    JOINT LeftHandMiddle2
                    {
                      OFFSET 6.276789 3e-06 0.0
                      CHANNELS 3 Zrotation Yrotation Xrotation
                      JOINT LeftHandMiddle3
                      {
                        OFFSET 4.35652 -1e-06 4e-06
                        CHANNELS 3 Zrotation Yrotation Xrotation
                        JOINT LeftHandMiddle4
                        {
                          OFFSET 2.996877 0.0 8e-06
                          CHANNELS 3 Zrotation Yrotation Xrotation
                          JOINT LeftHandMiddleEnd
                          {
                            OFFSET 2.323256 3e-06 -4e-06
                            CHANNELS 3 Zrotation Yrotation Xrotation
                          }
                        }
                      }
                    }
                  }
                  JOINT LeftHandRing1
                  {
                    OFFSET 2.882606 -0.309162 0.107445
                    CHANNELS 3 Zrotation Yrotation Xrotation
                    JOINT LeftHandRing2
                    {
                      OFFSET 6.033198 0.0 4e-06
                      CHANNELS 3 Zrotation Yrotation Xrotation
                      JOINT LeftHandRing3
                      {
                        OFFSET 4.350578 3e-06 0.0
                        CHANNELS 3 Zrotation Yrotation Xrotation
                        JOINT LeftHandRing4
                        {
                          OFFSET 2.651321 2e-06 -7e-06
                          CHANNELS 3 Zrotation Yrotation Xrotation
                          JOINT LeftHandRingEnd
                          {
                            OFFSET 1.937663 1e-06 -4e-06
                            CHANNELS 3 Zrotation Yrotation Xrotation
                          }
                        }
                      }
                    }
                  }
                  JOINT LeftHandPinky1
                  {
                    OFFSET 2.865315 -1.525436 0.575687
                    CHANNELS 3 Zrotation Yrotation Xrotation
                    JOINT LeftHandPinky2
                    {
                      OFFSET 5.54936 1e-06 -8e-06
                      CHANNELS 3 Zrotation Yrotation Xrotation
                      JOINT LeftHandPinky3
                      {
                        OFFSET 3.070974 0.0 -4e-06
                        CHANNELS 3 Zrotation Yrotation Xrotation
                        JOINT LeftHandPinky4
                        {
                          OFFSET 1.549672 1e-06 0.0
                          CHANNELS 3 Zrotation Yrotation Xrotation
                          JOINT LeftHandPinkyEnd
                          {
                            OFFSET 1.952123 0.0 0.0
                            CHANNELS 3 Zrotation Yrotation Xrotation
                          }
                        }
                      }
                    }
                  }
                }
              }
            }
          }
          JOINT RightShoulder
          {
            OFFSET 23.161716 5.296122 -1.380114
            CHANNELS 3 Zrotation Yrotation Xrotation
            JOINT RightArm
            {
              OFFSET -16.027195 -2e-06 1.1e-05
              CHANNELS 3 Zrotation Yrotation Xrotation
              JOINT RightForeArm
              {
                OFFSET -28.736639 4e-06 2e-06
                CHANNELS 3 Zrotation Yrotation Xrotation
                JOINT RightHand
                {
                  OFFSET -27.133619 6e-06 0.0
                  CHANNELS 3 Zrotation Yrotation Xrotation
                  JOINT RightHandThumb1
                  {
                    OFFSET -2.274328 -3.351035 -0.83067
                    CHANNELS 3 Zrotation Yrotation Xrotation
                    JOINT RightHandThumb2
                    {
                      OFFSET -4.703594 -3e-06 2e-06
                      CHANNELS 3 Zrotation Yrotation Xrotation
                      JOINT RightHandThumb3
                      {
                        OFFSET -2.794935 -4e-06 -3e-06
                        CHANNELS 3 Zrotation Yrotation Xrotation
                        JOINT RightHandThumbEnd
                        {
                          OFFSET -3.183852 4e-06 1e-06
                          CHANNELS 3 Zrotation Yrotation Xrotation
                        }
                      }
                    }
                  }
                  JOINT RightHandIndex1
                  {
                    OFFSET -3.253496 -2.33755 -0.127667
                    CHANNELS 3 Zrotation Yrotation Xrotation
                    JOINT RightHandIndex2
                    {
                      OFFSET -6.344434 0.0 0.0
                      CHANNELS 3 Zrotation Yrotation Xrotation
                      JOINT RightHandIndex3
                      {
                        OFFSET -3.654871 0.0 -8e-06
                        CHANNELS 3 Zrotation Yrotation Xrotation
                        JOINT RightHandIndex4
                        {
                          OFFSET -2.327586 -1e-06 0.0
                          CHANNELS 3 Zrotation Yrotation Xrotation
                          JOINT RightHandIndexEnd
                          {
                            OFFSET -2.770001 3e-06 8e-06
                            CHANNELS 3 Zrotation Yrotation Xrotation
                          }
                        }
                      }
                    }
                  }
                  JOINT RightHandMiddle1
                  {
                    OFFSET -3.168223 -0.944764 0.411762
                    CHANNELS 3 Zrotation Yrotation Xrotation
                    JOINT RightHandMiddle2
                    {
                      OFFSET -6.266691 -1e-06 -4e-06
                      CHANNELS 3 Zrotation Yrotation Xrotation
                      JOINT RightHandMiddle3
                      {
                        OFFSET -4.348901 0.0 0.0
                        CHANNELS 3 Zrotation Yrotation Xrotation
                        JOINT RightHandMiddle4
                        {
                          OFFSET -3.00024 2e-06 -4e-06
                          CHANNELS 3 Zrotation Yrotation Xrotation
                          JOINT RightHandMiddleEnd
                          {
                            OFFSET -2.321477 -4e-06 -4e-06
                            CHANNELS 3 Zrotation Yrotation Xrotation
                          }
                        }
                      }
                    }
                  }
                  JOINT RightHandRing1
                  {
                    OFFSET -2.885654 0.293261 -0.119232
                    CHANNELS 3 Zrotation Yrotation Xrotation
                    JOINT RightHandRing2
                    {
                      OFFSET -6.032835 -1e-06 -4e-06
                      CHANNELS 3 Zrotation Yrotation Xrotation
                      JOINT RightHandRing3
                      {
                        OFFSET -4.33881 0.0 -4e-06
                        CHANNELS 3 Zrotation Yrotation Xrotation
                        JOINT RightHandRing4
                        {
                          OFFSET -2.654903 -4e-06 -4e-06
                          CHANNELS 3 Zrotation Yrotation Xrotation
                          JOINT RightHandRingEnd
                          {
                            OFFSET -1.935122 0.0 4e-06
                            CHANNELS 3 Zrotation Yrotation Xrotation
                          }
                        }
                      }
                    }
                  }
                  JOINT RightHandPinky1
                  {
                    OFFSET -2.866241 1.503904 -0.60527
                    CHANNELS 3 Zrotation Yrotation Xrotation
                    JOINT RightHandPinky2
                    {
                      OFFSET -5.553177 -2e-06 0.0
                      CHANNELS 3 Zrotation Yrotation Xrotation
                      JOINT RightHandPinky3
                      {
                        OFFSET -3.062664 -1e-06 -4e-06
                        CHANNELS 3 Zrotation Yrotation Xrotation
                        JOINT RightHandPinky4
                        {
                          OFFSET -1.546529 2e-06 4e-06
                          CHANNELS 3 Zrotation Yrotation Xrotation
                          JOINT RightHandPinkyEnd
                          {
                            OFFSET -1.952341 0.0 -4e-06
                            CHANNELS 3 Zrotation Yrotation Xrotation
                          }
                        }
                      }
                    }
                  }
                }
              }
            }
          }
        }
      }
    }
    JOINT LeftLeg
    {
      OFFSET -8.443107 2.567604 10.043214
      CHANNELS 3 Zrotation Yrotation Xrotation
      JOINT LeftShin
      {
        OFFSET 43.229198 1e-06 -1e-06
        CHANNELS 3 Zrotation Yrotation Xrotation
        JOINT LeftFoot
        {
          OFFSET 42.298611 1e-06 1e-06
          CHANNELS 3 Zrotation Yrotation Xrotation
          JOINT LeftToeBase
          {
            OFFSET 14.165858 1e-06 0.0
            CHANNELS 3 Zrotation Yrotation Xrotation
            JOINT LeftToeEnd
            {
              OFFSET 6.7141 -0.234461 0.0
              CHANNELS 3 Zrotation Yrotation Xrotation
            }
          }
        }
      }
    }
    JOINT RightLeg
    {
      OFFSET -8.303923 2.592729 -10.047278
      CHANNELS 3 Zrotation Yrotation Xrotation
      JOINT RightShin
      {
        OFFSET -43.369682 0.0 1e-06
        CHANNELS 3 Zrotation Yrotation Xrotation
        JOINT RightFoot
        {
          OFFSET -42.260784 4e-06 2e-06
          CHANNELS 3 Zrotation Yrotation Xrotation
          JOINT RightToeBase
          {
            OFFSET -14.222245 -2e-06 -1e-06
            CHANNELS 3 Zrotation Yrotation Xrotation
            JOINT RightToeEnd
            {
              OFFSET -6.660062 0.232574 -2e-06
              CHANNELS 3 Zrotation Yrotation Xrotation
            }
          }
        }
      }
    }
  }
}
MOTION
Frames: 5
Frame Time: 0.03333333333333333
0.0 0.0 0.0 0.0 -0.0 0.0 -0.871004 99.83432 6.105279 91.01696 1.876363 90.053909 -4.123376 0.245473 -0.131906 -12.314653 -0.673306 0.347852 17.636917 -2.240877 -1.886454 24.394058 3.161345 2.66674 -2.593851 -0.636662 -0.276314 -30.29954 -0.12381 -0.397685 6e-06 0.0 -0.0 0.028999 0.019918 0.021864 0.028691 0.072581 0.039406 0.05123 -0.035033 0.01068 -135.68927 -75.002518 150.989624 36.839546 -56.815521 5.616162 22.307741 0.057727 0.068716 -3.885955 -4.840309 4.967829 17.636631 -26.322723 52.411167 -19.466658 -14.395592 29.410376 -0.0 -8.774819 -4e-06 16.471373 -18.130775 5.907564 -0.609776 -1.795653 -3.88933 -4.807088 -11.046809 -2.937847 3e-06 -20.976011 1e-06 -5.019972 -25.033552 -4.031878 6e-06 1e-06 -1e-06 -10.634535 -5.686971 -3.565588 10.573271 -17.922951 -3.113898 3e-06 -13.821208 -0.0 -0.501778 -31.181505 -4.027016 -11.467057 -59.844376 7.43711 -13.982712 -7.150198 -2.875041 13.772727 -8.401489 -3.218242 0.347732 -34.211544 0.771656 -0.963029 -17.733366 2.621018 1e-06 -1e-06 1e-06 -17.346418 -20.095217 -4.20178 21.757557 -1.638376 3.866427 1e-06 -6.338824 1e-06 -1.697589 -22.591747 -6.194007 -1e-06 -3e-06 -0.0 26.956636 -71.997353 168.609451 33.207893 -57.541088 -6.015979 22.884174 -0.40428 0.036375 -2.951695 -1.305516 23.257164 22.182114 -20.375891 49.933308 -16.701817 -16.74353 28.476528 -4e-06 -12.6906 -0.0 16.174835 -17.52247 2.482911 -0.10592 -1.513856 -4.27588 -5.039041 -5.612872 -2.953557 6e-06 -11.020523 -1e-06 -6.111296 -15.89533 -3.840471 -1e-06 -0.0 -0.0 -10.28337 -5.680288 -4.341839 11.028296 -11.302406 -2.372634 -1.384268 -14.23858 -6.320123 -0.625434 -26.924191 -3.827599 -4.141379 -49.662243 -3.952844 -13.708526 -7.363475 -3.720938 18.14115 -14.052739 -3.242676 8e-06 -18.78727 -4e-06 -0.429711 -8.456042 2.555506 1e-06 -0.0 -0.0 -15.923536 -20.094482 -5.473583 30.419214 -7.190828 1.735924 2e-06 -8.162924 -1e-06 -1.8619 -22.861471 -6.167942 -0.0 -4e-06 -2e-06 179.121262 -2.371943 -7.904892 13.955658 -0.018093 -0.037086 -79.968895 1.719623 -4.454654 -7.773495 1.426587 2.059192 -0.999999 0.0 -0.0 -0.643669 -2.457774 -4.610312 16.418415 -0.011517 -0.072189 -82.401581 -8.613762 -6.514822 -7.297359 0.8394 1.652398 -1.000002 -0.0 0.0 
0.0 0.0 0.0 0.0 -0.0 0.0 -0.893104 99.853264 6.20557 91.031647 1.862813 90.023895 -4.147662 0.219466 -0.140372 -12.31338 -0.644208 0.40856 17.612541 -2.25602 -1.930371 24.403336 3.220779 2.683456 -2.563576 -0.639555 -0.309385 -30.252817 -0.14674 -0.437474 6e-06 0.0 0.0 0.030495 0.019517 0.05623 0.02633 0.073316 0.072468 0.051748 -0.036745 0.045206 -135.703094 -75.033676 150.921387 36.927277 -56.942226 5.458477 22.398273 -0.037706 0.030447 -3.908306 -4.917504 4.931459 17.636629 -26.322731 52.41119 -19.46666 -14.395596 29.410385 -0.0 -8.774821 -4e-06 16.467865 -18.076332 5.884571 -0.609776 -1.795652 -3.889328 -4.80709 -11.046811 -2.937852 4e-06 -20.976017 1e-06 -5.019972 -25.033556 -4.031878 5e-06 0.0 0.0 -10.634534 -5.686969 -3.565584 10.573271 -17.922951 -3.113898 2e-06 -13.821211 -1e-06 -0.501777 -31.181507 -4.027017 -11.488178 -59.827732 7.545948 -13.982712 -7.150196 -2.87504 13.772729 -8.401491 -3.218242 0.347735 -34.211544 0.771656 -0.963028 -17.73337 2.62102 0.0 1e-06 0.0 -17.34642 -20.095217 -4.201779 21.757561 -1.638375 3.866429 1e-06 -6.338823 -1e-06 -1.69759 -22.591751 -6.194006 -2e-06 -3e-06 -1e-06 26.892715 -72.03344 168.661392 33.21558 -57.572842 -6.094001 22.886236 -0.39575 0.040621 -2.930621 -1.293694 23.048075 22.182114 -20.375895 49.933319 -16.701817 -16.74353 28.47653 -4e-06 -12.690601 1e-06 16.212324 -17.538382 2.471823 -0.105919 -1.513856 -4.275882 -5.039041 -5.612871 -2.953559 5e-06 -11.020524 -1e-06 -6.111297 -15.895334 -3.840472 0.0 0.0 -1e-06 -10.283369 -5.680287 -4.34184 11.028294 -11.302406 -2.372634 -1.384268 -14.238581 -6.320119 -0.625439 -26.924189 -3.8276 -4.164516 -49.822784 -3.923478 -13.708524 -7.363475 -3.72094 18.141151 -14.052741 -3.242679 8e-06 -18.787271 -3e-06 -0.42971 -8.456045 2.555505 1e-06 -1e-06 -1e-06 -15.923532 -20.094482 -5.473587 30.41921 -7.190827 1.735923 2e-06 -8.162925 -1e-06 -1.861902 -22.861467 -6.167943 1e-06 -6e-06 -0.0 179.293671 -2.328011 -7.896607 13.598681 -0.010768 0.019133 -79.845291 1.67865 -4.553588 -7.828406 1.461221 2.06726 -0.999999 -0.0 -0.0 -0.484487 -2.445445 -4.562528 16.189716 -0.010909 -0.063838 -82.346985 -8.668441 -6.458823 -7.368422 0.814819 1.648873 -1.000002 -0.0 -0.0 
0.0 0.0 0.0 0.0 -0.0 0.0 -0.904047 99.856857 6.263967 91.062576 1.85409 89.973595 -4.172771 0.186795 -0.146039 -12.333022 -0.633631 0.439058 17.656143 -2.261959 -1.936078 24.411179 3.269984 2.705503 -2.577257 -0.619566 -0.369242 -30.18223 -0.157684 -0.449043 5e-06 0.0 -0.0 0.027403 0.018299 0.064728 0.009816 0.067901 0.082647 0.040688 -0.0341 0.050873 -135.704376 -75.049164 150.877838 37.051987 -57.041916 5.325636 22.574358 -0.096561 -0.000513 -3.97217 -5.030995 4.749285 17.636625 -26.322725 52.411182 -19.466665 -14.395597 29.410385 -2e-06 -8.774819 -4e-06 16.495516 -18.076057 5.855816 -0.609777 -1.795654 -3.889326 -4.807087 -11.046808 -2.93785 8e-06 -20.976011 -3e-06 -5.019967 -25.033554 -4.03188 7e-06 0.0 -0.0 -10.634529 -5.686967 -3.565588 10.573276 -17.922949 -3.113901 6e-06 -13.821209 -1e-06 -0.501772 -31.181498 -4.027014 -11.547091 -59.829884 7.57139 -13.982708 -7.150193 -2.875042 13.772729 -8.401492 -3.21824 0.347741 -34.211544 0.771655 -0.963025 -17.733366 2.62102 1e-06 0.0 1e-06 -17.346409 -20.095213 -4.201784 21.757555 -1.638378 3.866426 3e-06 -6.338823 -0.0 -1.697586 -22.591743 -6.194006 -0.0 -3e-06 -0.0 26.823332 -72.033424 168.71489 33.249031 -57.569801 -6.150468 22.899662 -0.375938 0.028554 -2.934079 -1.29016 22.972097 22.18211 -20.375896 49.933319 -16.701815 -16.743528 28.47653 -5e-06 -12.690598 0.0 16.242558 -17.535496 2.478053 -0.105919 -1.513857 -4.275881 -5.039038 -5.612869 -2.953554 6e-06 -11.020523 -2e-06 -6.111293 -15.89533 -3.840472 -0.0 1e-06 0.0 -10.283367 -5.680287 -4.341839 11.028296 -11.302405 -2.372634 -1.384266 -14.23858 -6.320119 -0.625436 -26.924189 -3.827599 -4.19374 -49.910076 -3.911631 -13.708522 -7.363476 -3.720942 18.141146 -14.05274 -3.242676 8e-06 -18.78727 -2e-06 -0.42971 -8.456043 2.555502 1e-06 -0.0 -0.0 -15.923528 -20.094482 -5.473585 30.41921 -7.190831 1.735924 3e-06 -8.162925 -3e-06 -1.861897 -22.861473 -6.16794 1e-06 -5e-06 0.0 179.384583 -2.280902 -7.88691 13.420818 -0.006954 0.046389 -79.791534 1.615473 -4.593683 -7.810358 1.47565 2.073039 -0.999999 0.0 0.0 -0.452534 -2.471492 -4.504332 16.169418 -0.004297 -0.062645 -82.365814 -8.733124 -6.451262 -7.377273 0.799724 1.645447 -1.000002 0.0 -0.0 
0.0 0.0 0.0 0.0 -0.0 0.0 -0.905971 99.860397 6.282155 91.093513 1.845787 89.935143 -4.189579 0.154286 -0.147751 -12.355165 -0.631416 0.449954 17.707418 -2.26583 -1.919303 24.432806 3.302967 2.713612 -2.601787 -0.604317 -0.399331 -30.138357 -0.155682 -0.450893 6e-06 0.0 0.0 0.024465 0.016227 0.06015 -0.005934 0.060783 0.080068 0.027251 -0.031289 0.04354 -135.709595 -75.037956 150.871887 37.220066 -57.101837 5.231672 22.763687 -0.124962 -0.010718 -4.00259 -5.08908 4.612975 17.636621 -26.322725 52.411194 -19.466654 -14.395596 29.410389 1e-06 -8.774821 -3e-06 16.502436 -18.058613 5.840323 -0.609777 -1.795654 -3.889327 -4.807088 -11.046809 -2.93785 3e-06 -20.976013 -1e-06 -5.019969 -25.033556 -4.031882 8e-06 2e-06 0.0 -10.634533 -5.686971 -3.565586 10.573271 -17.922949 -3.113902 2e-06 -13.821206 -1e-06 -0.501779 -31.181498 -4.027016 -11.567976 -59.826153 7.556526 -13.982712 -7.150199 -2.87504 13.772725 -8.401489 -3.21824 0.347728 -34.211544 0.771656 -0.963032 -17.733366 2.621017 1e-06 -0.0 -1e-06 -17.346418 -20.095217 -4.201778 21.757555 -1.638373 3.866428 1e-06 -6.338824 -0.0 -1.697588 -22.591742 -6.194008 -1e-06 -3e-06 -2e-06 26.751482 -72.004791 168.77298 33.280731 -57.559208 -6.129761 22.893965 -0.347684 0.019524 -2.962595 -1.350944 22.98259 22.182112 -20.375889 49.933315 -16.701805 -16.743528 28.476526 -2e-06 -12.6906 -1e-06 16.257858 -17.527897 2.492346 -0.105919 -1.513855 -4.275882 -5.03904 -5.61287 -2.953555 3e-06 -11.02052 0.0 -6.1113 -15.89533 -3.840466 -0.0 1e-06 -3e-06 -10.283369 -5.680288 -4.341839 11.028292 -11.302402 -2.372635 -1.384271 -14.238579 -6.320119 -0.625441 -26.924185 -3.827601 -4.229943 -49.918934 -3.88538 -13.708523 -7.363475 -3.720941 18.141146 -14.052733 -3.242674 5e-06 -18.787266 -2e-06 -0.429711 -8.456042 2.555504 0.0 -0.0 -0.0 -15.923536 -20.094482 -5.473582 30.41921 -7.190823 1.735925 2e-06 -8.162922 -0.0 -1.861904 -22.861467 -6.16794 2e-06 -5e-06 -1e-06 179.508011 -2.298823 -7.906718 13.28478 -0.004947 0.054438 -79.746346 1.603943 -4.660507 -7.78055 1.474244 2.072757 -0.999999 -0.0 0.0 -0.461651 -2.511066 -4.487561 16.183113 0.004842 -0.071273 -82.377823 -8.745168 -6.469781 -7.368809 0.782908 1.641501 -1.000002 -0.0 -0.0 
0.0 0.0 0.0 0.0 -0.0 0.0 -0.896214 99.865372 6.277753 91.106194 1.831159 89.918694 -4.212284 0.134887 -0.137463 -12.371249 -0.632135 0.4409 17.757505 -2.268395 -1.896146 24.456322 3.33356 2.706652 -2.620146 -0.586098 -0.400408 -30.141113 -0.147298 -0.45644 6e-06 0.0 0.0 0.024837 0.015365 0.060392 -0.013543 0.056561 0.0808 0.018835 -0.028696 0.042837 -135.664536 -75.009827 150.849121 37.478275 -57.128483 5.106148 22.911276 -0.142195 -0.005129 -4.003848 -5.096841 4.546776 17.636627 -26.322737 52.411205 -19.466663 -14.395597 29.410395 -1e-06 -8.774819 -3e-06 16.46694 -18.032137 5.853464 -0.609778 -1.795655 -3.889329 -4.807087 -11.046812 -2.93785 5e-06 -20.976019 -2e-06 -5.019969 -25.033562 -4.031882 6e-06 1e-06 -1e-06 -10.634532 -5.686972 -3.56559 10.573274 -17.922955 -3.113901 4e-06 -13.821211 1e-06 -0.501775 -31.181507 -4.027016 -11.557899 -59.79813 7.536461 -13.982712 -7.150198 -2.875044 13.772727 -8.401493 -3.218242 0.347734 -34.211559 0.771657 -0.963031 -17.733372 2.62102 1e-06 -1e-06 0.0 -17.346413 -20.095217 -4.201784 21.757555 -1.638377 3.866426 2e-06 -6.338824 0.0 -1.697585 -22.591749 -6.194009 0.0 -5e-06 -3e-06 26.70463 -71.964233 168.819855 33.313873 -57.536552 -6.03157 22.871794 -0.322599 0.018132 -3.007361 -1.457541 23.010839 22.182116 -20.375891 49.933308 -16.701817 -16.74353 28.47653 -4e-06 -12.6906 -0.0 16.263987 -17.533106 2.509336 -0.105919 -1.513854 -4.275881 -5.039041 -5.612871 -2.953557 6e-06 -11.020523 -2e-06 -6.111295 -15.895329 -3.840472 0.0 1e-06 -0.0 -10.283369 -5.680287 -4.341841 11.028294 -11.302404 -2.37263 -1.384267 -14.238577 -6.32012 -0.625435 -26.924191 -3.827598 -4.260531 -49.90794 -3.865464 -13.708525 -7.363474 -3.72094 18.14115 -14.05274 -3.242676 8e-06 -18.787266 -2e-06 -0.42971 -8.456043 2.555506 -0.0 -0.0 -0.0 -15.923534 -20.094479 -5.473584 30.41921 -7.190826 1.735924 2e-06 -8.162922 -1e-06 -1.861901 -22.861469 -6.16794 0.0 -4e-06 -1e-06 179.474457 -2.214281 -7.93422 13.206875 -0.010013 0.052668 -79.701057 1.565381 -4.574882 -7.740837 1.468828 2.069864 -0.999999 -0.0 -0.0 -0.477503 -2.537409 -4.508889 16.17198 0.007858 -0.073982 -82.363258 -8.735873 -6.507027 -7.344419 0.771939 1.639261 -1.000002 1e-06 0.0 
